HIERARCHY
ROOT joint_Root
{
  OFFSET 0 0 0
  CHANNELS 6 Xposition Yposition Zposition Zrotation Xrotation Yrotation
  JOINT Hips
  {
    OFFSET 0.847027 93.984 -452.225
    CHANNELS 6 Xposition Yposition Zposition Zrotation Xrotation Yrotation
    JOINT Spine
    {
      OFFSET 15.7357 0 0
      CHANNELS 6 Xposition Yposition Zposition Zrotation Xrotation Yrotation
      JOINT Chest
      {
        OFFSET 8.98455 -0.406207 0
        CHANNELS 6 Xposition Yposition Zposition Zrotation Xrotation Yrotation
        JOINT Neck
        {
          OFFSET 16.3773 0 0
          CHANNELS 6 Xposition Yposition Zposition Zrotation Xrotation Yrotation
          JOINT Head
          {
            OFFSET 6.45672 0 0
            CHANNELS 6 Xposition Yposition Zposition Zrotation Xrotation Yrotation
            End Site
            {
              OFFSET 0 0 0
            }
          }
        }
        JOINT Shoulder_L
        {
          OFFSET 12.9942 -0.242716 4.98039
          CHANNELS 6 Xposition Yposition Zposition Zrotation Xrotation Yrotation
          JOINT UpperArm_L
          {
            OFFSET 5.34809 0 0
            CHANNELS 6 Xposition Yposition Zposition Zrotation Xrotation Yrotation
            JOINT LowerArm_L
            {
              OFFSET 24.3286 1.87007e-05 0
              CHANNELS 6 Xposition Yposition Zposition Zrotation Xrotation Yrotation
              JOINT Hand_L
              {
                OFFSET 22.2916 0 0
                CHANNELS 6 Xposition Yposition Zposition Zrotation Xrotation Yrotation
                End Site
                {
                  OFFSET 0 0 0
                }
              }
            }
          }
        }
        JOINT Shoulder_R
        {
          OFFSET 12.9945 -0.242716 -4.98039
          CHANNELS 6 Xposition Yposition Zposition Zrotation Xrotation Yrotation
          JOINT UpperArm_R
          {
            OFFSET -5.34813 0 0
            CHANNELS 6 Xposition Yposition Zposition Zrotation Xrotation Yrotation
            JOINT LowerArm_R
            {
              OFFSET -24.3289 0.000322201 0
              CHANNELS 6 Xposition Yposition Zposition Zrotation Xrotation Yrotation
              JOINT Hand_R
              {
                OFFSET -22.2915 -0.000108084 0
                CHANNELS 6 Xposition Yposition Zposition Zrotation Xrotation Yrotation
                End Site
                {
                  OFFSET 0 0 0
                }
              }
            }
          }
        }
      }
    }
    JOINT UpperLeg_L
    {
      OFFSET -2.19248 -6.46944 0
      CHANNELS 6 Xposition Yposition Zposition Zrotation Xrotation Yrotation
      JOINT LowerLeg_L
      {
        OFFSET 39.0811 0 -1.23785e-05
        CHANNELS 6 Xposition Yposition Zposition Zrotation Xrotation Yrotation
        JOINT Foot_L
        {
          OFFSET 40.9854 0 -1.26872e-05
          CHANNELS 6 Xposition Yposition Zposition Zrotation Xrotation Yrotation
          JOINT Toes_L
          {
            OFFSET 11.7543 0 0
            CHANNELS 6 Xposition Yposition Zposition Zrotation Xrotation Yrotation
            End Site
            {
              OFFSET 0 0 0
            }
          }
        }
      }
    }
    JOINT UpperLeg_R
    {
      OFFSET -2.19251 6.46944 0
      CHANNELS 6 Xposition Yposition Zposition Zrotation Xrotation Yrotation
      JOINT LowerLeg_R
      {
        OFFSET -39.0811 -0.00228153 -0.0401928
        CHANNELS 6 Xposition Yposition Zposition Zrotation Xrotation Yrotation
        JOINT Foot_R
        {
          OFFSET -40.9854 0 0
          CHANNELS 6 Xposition Yposition Zposition Zrotation Xrotation Yrotation
          JOINT Toes_R
          {
            OFFSET -11.7543 0 0
            CHANNELS 6 Xposition Yposition Zposition Zrotation Xrotation Yrotation
            End Site
            {
              OFFSET 0 0 0
            }
          }
        }
      }
    }
  }
}
MOTION
Frames:	4
Frame Time:	0.0333333
0 0 0 0 0 -0 -2.07339 89.4303 292.952 90.0407 -4.89258 4.00262 15.7357 5.1072e-06 -5.51764e-07 89.7094 78.5228 -90.1316 8.98455 -0.406207 -4.3199e-07 15.1877 -0.142161 -0.826076 16.3773 -1.3905e-06 -6.99897e-07 11.9275 -1.62606 2.14536 6.45672 -1.25837e-06 -1.02172e-07 -10.8588 0.437727 0.173156 12.9942 -0.242716 4.98039 -90.3566 1.03374 -85.9708 5.34809 -7.22636e-06 -6.2814e-07 -67.5738 7.07744 -2.14244 24.3286 1.87007e-05 4.90208e-06 28.1176 1.16897 -87.8141 22.2916 -9.88446e-07 4.63217e-06 5.1272 5.07526 5.68351 12.9945 -0.242716 -4.98039 88.3756 7.31035 -92.4356 -5.34813 -1.25947e-06 -3.79883e-06 -60.2544 9.75756 0.101786 -24.3289 0.000322201 -8.65921e-06 26.3924 0.14195 -89.7145 -22.2915 -0.000108084 -4.47941e-06 12.0365 5.35582 -1.55211 -2.19248 -6.46944 -1.22533e-07 -173.039 -5.203 -23.0007 39.0811 -6.73843e-06 -1.23785e-05 0.242157 -0.186108 51.4882 40.9854 -6.48686e-06 -1.26872e-05 -9.39999 6.75771 -61.7439 11.7543 -2.30145e-07 3.05095e-06 0.100032 -0.162894 -19.45 -2.19251 6.46944 -1.45247e-06 -178.966 13.3391 156.068 -39.0811 -0.00228153 -0.0401928 0.398743 -0.557148 33.9814 -40.9854 7.72618e-06 5.99936e-06 2.913 2.74453 -60.2609 -11.7543 -5.6619e-06 -5.58687e-06 0.153423 -0.175787 -18.2896 
0 0 0 0 0 -0 -1.75964 89.2547 290.91 89.242 -5.94977 4.08346 15.7357 5.1072e-06 -5.51765e-07 87.7098 78.7338 -88.0434 8.98455 -0.406207 -4.3199e-07 14.747 -0.909251 -0.54984 16.3773 -1.3905e-06 -6.99897e-07 12.3066 -0.792076 1.91577 6.45672 -1.25837e-06 -1.02172e-07 -10.5954 2.14369 -0.0192121 12.9942 -0.242716 4.98039 -90.13 0.390302 -86.5969 5.34809 -7.22636e-06 -6.2814e-07 -66.4489 7.41809 -4.31456 24.3286 1.87007e-05 4.90208e-06 26.0092 0.634242 -88.701 22.2916 -9.88446e-07 4.63217e-06 7.11742 5.12686 4.49687 12.9945 -0.242716 -4.98039 88.3946 7.19783 -92.3912 -5.34813 -1.25947e-06 -3.79883e-06 -60.3602 11.1123 1.86458 -24.3289 0.000322201 -8.65921e-06 26.9673 0.0860393 -89.8315 -22.2915 -0.000108084 -4.47941e-06 11.103 5.34446 -1.21087 -2.19248 -6.46944 -1.22533e-07 -172.151 -5.60656 -19.7139 39.0811 -6.73843e-06 -1.23785e-05 0.279867 -0.189471 54.5802 40.9854 -6.48686e-06 -1.26872e-05 -9.56572 8.86269 -62.8144 11.7543 -2.30145e-07 3.05095e-06 0.104381 -0.170412 -19.5804 -2.19251 6.46944 -1.45247e-06 -177.802 12.7738 155.32 -39.0811 -0.00228153 -0.0401928 0.363415 -0.521745 33.0707 -40.9854 7.72618e-06 5.99936e-06 3.10642 2.71311 -60.2351 -11.7543 -5.6619e-06 -5.58687e-06 0.179133 -0.206307 -18.5831 
0 0 0 0 0 -0 -1.37248 88.7825 288.674 88.4571 -6.80456 4.24761 15.7357 5.1072e-06 -5.51765e-07 85.5357 78.7154 -85.7871 8.98455 -0.406207 -4.3199e-07 14.7357 -1.74968 -0.276807 16.3773 -1.3905e-06 -6.99897e-07 12.8391 -0.0967783 1.85775 6.45672 -1.25837e-06 -1.02172e-07 -11.4195 3.7305 -0.0577201 12.9942 -0.242716 4.98039 -89.9266 -0.228537 -87.1817 5.34809 -7.22636e-06 -6.2814e-07 -65.0561 7.29653 -6.86488 24.3286 1.87007e-05 4.90208e-06 24.5684 0.130603 -89.7146 22.2916 -9.88446e-07 4.63217e-06 8.61989 5.15991 3.70731 12.9945 -0.242716 -4.98039 88.3844 7.14609 -92.2255 -5.34813 -1.25947e-06 -3.79883e-06 -60.1216 12.1409 3.02858 -24.3289 0.000322201 -8.65921e-06 27.3448 0.00673372 -89.9875 -22.2915 -0.000108084 -4.47941e-06 10.3915 5.34247 -1.152 -2.19248 -6.46944 -1.22534e-07 -171.403 -5.65612 -16.2491 39.0811 -6.73843e-06 -1.23785e-05 0.302962 -0.187272 56.5454 40.9854 -6.48686e-06 -1.26872e-05 -9.73161 10.8377 -63.5921 11.7543 -2.30145e-07 3.05095e-06 0.100942 -0.164454 -19.4771 -2.19251 6.46944 -1.45247e-06 -176.755 11.762 154.061 -39.0811 -0.00228153 -0.0401928 0.325955 -0.465108 32.8947 -40.9854 7.72618e-06 5.99936e-06 3.18452 2.33064 -59.7595 -11.7543 -5.6619e-06 -5.58687e-06 0.174127 -0.200347 -18.526 
0 0 0 0 0 -0 -0.834795 88.0609 286.228 87.8554 -7.43605 4.64752 15.7357 5.1072e-06 -5.51765e-07 83.5471 78.4757 -83.777 8.98455 -0.406207 -4.3199e-07 15.1423 -2.57054 -0.118532 16.3773 -1.3905e-06 -6.99897e-07 13.2777 0.392641 1.90928 6.45672 -1.25837e-06 -1.02172e-07 -12.4632 5.08972 0.0205304 12.9942 -0.242716 4.98039 -89.7043 -0.956169 -87.8074 5.34809 -7.22636e-06 -6.2814e-07 -63.7753 6.62061 -9.5886 24.3286 1.87007e-05 4.90208e-06 24.2869 -0.333526 -90.7391 22.2916 -9.88446e-07 4.63217e-06 9.10809 5.17551 3.32583 12.9945 -0.242716 -4.98039 88.3516 7.1357 -91.9566 -5.34813 -1.25947e-06 -3.79883e-06 -59.7961 12.6951 3.88608 -24.3289 0.000322201 -8.65921e-06 27.5645 -0.11967 -90.2298 -22.2915 -0.000108084 -4.47941e-06 9.99677 5.34232 -1.14759 -2.19248 -6.46944 -1.22533e-07 -171.239 -5.50917 -12.6914 39.0811 -6.73843e-06 -1.23785e-05 0.290959 -0.169354 57.3566 40.9854 -6.48686e-06 -1.26872e-05 -8.64242 10.9298 -64.1058 11.7543 -2.30145e-07 3.05095e-06 0.229041 -0.405002 -23.5724 -2.19251 6.46944 -1.45247e-06 -175.961 11.1398 152.49 -39.0811 -0.00228153 -0.0401928 0.289792 -0.404296 33.3657 -40.9854 7.72618e-06 5.99936e-06 3.28586 2.00095 -59.2401 -11.7543 -5.6619e-06 -5.58687e-06 0.182893 -0.210804 -18.6263 
